# xmcd
#
# Track frame offsets: 
#        151
#        17884
#        30946
#        42172
#        55418
#        72379
#        80795
#        104313
#        122802
#        141479
#        158065
#        171103
#
# Disc length: 2452 seconds
#
# Revision: 0
# Processed by: cddbd v1.5.1PL2 Copyright (c) Steve Scherf et al.
# Submitted via: ExactAudioCopy v0.95b4
#
DISCID=a409920c
DTITLE=Mad Dog and the Wildcats - You Can't Take It With You
DYEAR=2003
DGENRE=Blues
TTITLE0=You Can't Take It With You
TTITLE1=Surfing Without A Net
TTITLE2=Stealing Men Is Not OK
TTITLE3=The Blues Tonight
TTITLE4=Stand Up
TTITLE5=Fine, So Fine
TTITLE6=I Should Have Seen It Coming
TTITLE7=It Must Be Magic
TTITLE8=Next Man Blues
TTITLE9=Bad Day To Stop Drinking
TTITLE10=Is It Real?
TTITLE11=The Joint Is Jumpin'
EXTD=
EXTT0=
EXTT1=
EXTT2=
EXTT3=
EXTT4=
EXTT5=
EXTT6=
EXTT7=
EXTT8=
EXTT9=
EXTT10=
EXTT11=
PLAYORDER=
